<?xml version="1.0" encoding="UTF-8"?>
<svg version="1.1" xmlns="http://www.w3.org/2000/svg" width="62" height="64">
<path d="M0 0 C4.48965105 -0.35212949 4.48965105 -0.35212949 7 1 C8.58188236 3.96988499 9.63772163 6.91469531 10.6640625 10.1171875 C12.26061422 13.56237804 13.60469557 14.42212079 17 16 C18.9959722 16.67863055 20.99568551 17.34641919 23 18 C23.99 18.66 24.98 19.32 26 20 C26.35172095 24.4844421 26.35172095 24.4844421 25 27 C22.0091221 28.69030581 19.02629308 29.82514437 15.78515625 30.95703125 C12.90902719 31.81482431 12.90902719 31.81482431 11 34 C10.44599646 35.45979934 9.95158795 36.94284206 9.5 38.4375 C8.58317446 41.46202775 7.79028536 43.31457196 6 46 C1.51034895 46.35212949 1.51034895 46.35212949 -1 45 C-2.58188236 42.03011501 -3.63772163 39.08530469 -4.6640625 35.8828125 C-6.26061422 32.43762196 -7.60469557 31.57787921 -11 30 C-12.9959722 29.32136945 -14.99568551 28.65358081 -17 28 C-17.99 27.34 -18.98 26.68 -20 26 C-20.35212949 21.51034895 -20.35212949 21.51034895 -19 19 C-16.03011501 17.41811764 -13.08530469 16.36227837 -9.8828125 15.3359375 C-6.43762196 13.73938578 -5.57787921 12.39530443 -4 9 C-3.32136945 7.0040278 -2.65358081 5.00431449 -2 3 C-1.34 2.01 -0.68 1.02 0 0 Z " fill="#DD6279" transform="translate(28,10)"/>
<path d="M0 0 C0.66 0 1.32 0 2 0 C2.18175781 0.78246094 2.36351563 1.56492187 2.55078125 2.37109375 C2.80214844 3.38300781 3.05351563 4.39492188 3.3125 5.4375 C3.67794922 6.95150391 3.67794922 6.95150391 4.05078125 8.49609375 C4.36402344 9.32238281 4.67726563 10.14867187 5 11 C5.99 11.33 6.98 11.66 8 12 C8 12.66 8 13.32 8 14 C11.3 14.66 14.6 15.32 18 16 C18 16.66 18 17.32 18 18 C17.32453125 18.23074219 16.6490625 18.46148437 15.953125 18.69921875 C9.77229495 20.95897309 6.04409246 22.7154394 3.10546875 28.875 C2.35949141 30.56451946 1.67427211 32.28060612 1 34 C-1 31 -1 31 -2.3125 27.5625 C-4.34707128 23.26729397 -6.3500667 20.96411295 -10.87890625 19.31640625 C-12.57035737 18.82093067 -14.28432554 18.40368811 -16 18 C-16 17.34 -16 16.68 -16 16 C-15.32453125 15.73445313 -14.6490625 15.46890625 -13.953125 15.1953125 C-13.06109375 14.84210937 -12.1690625 14.48890625 -11.25 14.125 C-10.36828125 13.77695312 -9.4865625 13.42890625 -8.578125 13.0703125 C-7.72734375 12.71710937 -6.8765625 12.36390625 -6 12 C-5.2575 11.731875 -4.515 11.46375 -3.75 11.1875 C-1.76781101 10.09686808 -1.76781101 10.09686808 -1.171875 7.6171875 C-1.03265625 6.71226563 -0.8934375 5.80734375 -0.75 4.875 C-0.60046875 3.96492188 -0.4509375 3.05484375 -0.296875 2.1171875 C-0.19890625 1.41851563 -0.1009375 0.71984375 0 0 Z " fill="#FBF7FB" transform="translate(30,16)"/>
<path d="M0 0 C2.31 0.33 4.62 0.66 7 1 C7.66 2.98 8.32 4.96 9 7 C7.68 7.99 6.36 8.98 5 10 C4.67 8.68 4.34 7.36 4 6 C3.34 6 2.68 6 2 6 C1.855625 7.093125 1.71125 8.18625 1.5625 9.3125 C0.64362036 15.3362665 0.64362036 15.3362665 -2 18.0625 C-5.85303448 20.5509181 -9.52231326 21.25859653 -14 22 C-14 22.66 -14 23.32 -14 24 C-12.68 24 -11.36 24 -10 24 C-10.9566253 26.47128202 -11.45972898 27.72986449 -13.875 28.9375 C-16.76820282 29.0225942 -17.89167237 27.88243538 -20 26 C-20.35212949 21.51034895 -20.35212949 21.51034895 -19 19 C-16.03011501 17.41811764 -13.08530469 16.36227837 -9.8828125 15.3359375 C-6.43762196 13.73938578 -5.57787921 12.39530443 -4 9 C-3.32136945 7.0040278 -2.65358081 5.00431449 -2 3 C-1.34 2.01 -0.68 1.02 0 0 Z " fill="#7C78DA" transform="translate(28,10)"/>
<path d="M0 0 C2 1 2 1 3.0625 3.875 C5.79919028 8.28901657 9.12077826 8.83389669 14 10 C10.25 13.875 10.25 13.875 8 15 C4.33093721 14.20237765 2.36019714 13.36019714 -0.3125 10.6875 C-2.0310977 7.95047403 -2.91502241 6.2291483 -3 3 C-1.5625 1.1875 -1.5625 1.1875 0 0 Z " fill="#C75CC2" transform="translate(36,17)"/>
<path d="M0 0 C4.19395036 0.48391735 7.31019424 2.87507861 10 6 C11.03683712 8.36222798 11.49887784 10.444277 12 13 C10.625 14.5 10.625 14.5 9 16 C8.34 16 7.68 16 7 16 C6.78085937 15.38511719 6.56171875 14.77023438 6.3359375 14.13671875 C4.21065912 8.65071159 4.21065912 8.65071159 -0.25 4.9375 C-1.1575 4.628125 -2.065 4.31875 -3 4 C-2.01 2.68 -1.02 1.36 0 0 Z " fill="#D15EA0" transform="translate(18,35)"/>
<path d="M0 0 C2.31 0.33 4.62 0.66 7 1 C7.66 2.98 8.32 4.96 9 7 C7.68 7.99 6.36 8.98 5 10 C4.67 8.68 4.34 7.36 4 6 C1.28775382 7.61268692 -1.37352812 9.24901874 -4 11 C-3.56179109 6.44262737 -3.14958831 3.42346555 0 0 Z " fill="#747AD9" transform="translate(28,10)"/>
<path d="M0 0 C-2.48085215 3.36687078 -4.30387171 5.1795189 -8 7 C-9.28016835 8.00435972 -10.53128122 9.04690261 -11.75 10.125 C-12.36359375 10.66382813 -12.9771875 11.20265625 -13.609375 11.7578125 C-14.06828125 12.16773438 -14.5271875 12.57765625 -15 13 C-13.67429457 7.93821563 -11.70494547 4.70494547 -8 1 C-2.74226804 -1.37113402 -2.74226804 -1.37113402 0 0 Z " fill="#DC6889" transform="translate(47,35)"/>
<path d="M0 0 C3.26954202 0.56371414 4.82575883 1.49962266 7 4 C5.68 4.99 4.36 5.98 3 7 C1.02 6.01 -0.96 5.02 -3 4 C-2.01 2.68 -1.02 1.36 0 0 Z " fill="#A65FDA" transform="translate(18,35)"/>
<path d="M0 0 C2 1 2 1 3.125 4.0625 C3.41375 5.031875 3.7025 6.00125 4 7 C1.525 8.485 1.525 8.485 -1 10 C-1.66 7.69 -2.32 5.38 -3 3 C-2.01 2.01 -1.02 1.02 0 0 Z " fill="#A55DDA" transform="translate(36,17)"/>
<path d="M0 0 C-0.25 2.875 -0.25 2.875 -1 6 C-2.8125 7.4375 -2.8125 7.4375 -5 8 C-6.34295612 7.70783953 -7.67903551 7.37939651 -9 7 C-7.88121617 5.82737096 -6.75476949 4.66204862 -5.625 3.5 C-4.68527344 2.52546875 -4.68527344 2.52546875 -3.7265625 1.53125 C-2 0 -2 0 0 0 Z " fill="#E3666A" transform="translate(54,31)"/>
<path d="M0 0 C-1.14239817 1.33627775 -2.28901055 2.66895388 -3.4375 4 C-4.07558594 4.7425 -4.71367187 5.485 -5.37109375 6.25 C-6.17740234 7.11625 -6.17740234 7.11625 -7 8 C-7.33 8 -7.66 8 -8 8 C-7.75 4.625 -7.75 4.625 -7 1 C-4.18767584 -1.24985933 -3.47216275 -1.15738758 0 0 Z " fill="#6C88DA" transform="translate(16,28)"/>
<path d="M0 0 C2.625 -0.1875 2.625 -0.1875 5 0 C4.04578192 1.14926266 3.08647955 2.29430541 2.125 3.4375 C1.59132813 4.07558594 1.05765625 4.71367187 0.5078125 5.37109375 C-1 7 -1 7 -3 8 C-2.45276317 4.62537285 -1.9451 2.91765 0 0 Z " fill="#6D8ADB" transform="translate(28,10)"/>
<path d="M0 0 C0.33 0.66 0.66 1.32 1 2 C2.32 2 3.64 2 5 2 C4.25 3.9375 4.25 3.9375 3 6 C0.875 6.75 0.875 6.75 -1 7 C-1 3 -1 3 0 0 Z " fill="#9274DC" transform="translate(13,32)"/>
<path d="M0 0 C1.32 0.66 2.64 1.32 4 2 C3.34 3.32 2.68 4.64 2 6 C1.01 6 0.02 6 -1 6 C-1.625 4.125 -1.625 4.125 -2 2 C-1.34 1.34 -0.68 0.68 0 0 Z " fill="#C657BE" transform="translate(24,39)"/>
<path d="M0 0 C0.66 0 1.32 0 2 0 C1.70381606 3.55420724 1.19662957 4.80337043 -1.375 7.375 C-2.24125 7.91125 -3.1075 8.4475 -4 9 C-4.99 8.67 -5.98 8.34 -7 8 C-5.88200014 6.66079162 -4.75538103 5.32877444 -3.625 4 C-2.68527344 2.88625 -2.68527344 2.88625 -1.7265625 1.75 C-1.15679687 1.1725 -0.58703125 0.595 0 0 Z " fill="#9473DC" transform="translate(27,21)"/>
<path d="M0 0 C0.66 0.99 1.32 1.98 2 3 C1.34 4.32 0.68 5.64 0 7 C-0.99 7 -1.98 7 -3 7 C-3 6.01 -3 5.02 -3 4 C-3.66 3.67 -4.32 3.34 -5 3 C-3.35 2.67 -1.7 2.34 0 2 C0 1.34 0 0.68 0 0 Z " fill="#8F71DB" transform="translate(35,12)"/>
<path d="M0 0 C2.00720923 0.28674418 4.0085944 0.61866701 6 1 C2.25 4.875 2.25 4.875 0 6 C-0.99 5.67 -1.98 5.34 -3 5 C-1.125 1.125 -1.125 1.125 0 0 Z " fill="#D367A8" transform="translate(44,26)"/>
<path d="M0 0 C0.99 0.33 1.98 0.66 3 1 C0.69 3.31 -1.62 5.62 -4 8 C-4.33 7.34 -4.66 6.68 -5 6 C-3.35 4.02 -1.7 2.04 0 0 Z " fill="#D55E8F" transform="translate(39,36)"/>
<path d="M0 0 C0.33 0.66 0.66 1.32 1 2 C0.22265625 3.7265625 0.22265625 3.7265625 -0.9375 5.625 C-1.618125 6.73875 -2.29875 7.8525 -3 9 C-3.99 8.67 -4.98 8.34 -6 8 C-5.38125 7.236875 -4.7625 6.47375 -4.125 5.6875 C-1.94402948 3.00374191 -1.94402948 3.00374191 0 0 Z " fill="#E87674" transform="translate(37,47)"/>
<path d="M0 0 C0.99 0.33 1.98 0.66 3 1 C3 1.66 3 2.32 3 3 C-0.46153846 6 -0.46153846 6 -3 6 C-2.42655063 3.13275314 -2.1385485 2.1385485 0 0 Z " fill="#DB698B" transform="translate(29,48)"/>
<path d="M0 0 C2.125 0.375 2.125 0.375 4 1 C2.68 2.32 1.36 3.64 0 5 C-0.66 4.01 -1.32 3.02 -2 2 C-1.34 1.34 -0.68 0.68 0 0 Z " fill="#B94ED6" transform="translate(21,37)"/>
<path d="M0 0 C0.33 0.99 0.66 1.98 1 3 C-1.475 4.485 -1.475 4.485 -4 6 C-4.33 5.01 -4.66 4.02 -5 3 C-2.25 0 -2.25 0 0 0 Z " fill="#BD5BDA" transform="translate(39,21)"/>
</svg>
