<svg viewBox="15 18 127 102" xmlns="http://www.w3.org/2000/svg" xmlns:xlink="http://www.w3.org/1999/xlink" style="fill-rule:evenodd;clip-rule:evenodd;stroke-linejoin:round;stroke-miterlimit:2;">
    <clipPath id="_clip1">
        <rect x="15" y="18" width="126.97" height="101.576"/>
    </clipPath>
    <g clip-path="url(#_clip1)">
        <path d="M123.693,116.641C121.855,118.123 119.508,118.844 117.143,118.654C114.67,118.414 111.385,117.024 109.688,114.833L113.403,99.432L122.161,100.04L123.693,116.641Z" style="fill:rgb(10,44,55);fill-rule:nonzero;"/>
        <path d="M100.671,77.188C100.671,77.188 98.86,78.689 95.332,89.141C94.039,92.967 91.617,96.803 88.089,99.04C88.089,99.04 86.02,107.724 96.884,110.789C98.474,111.24 100.117,111.273 101.74,111.025C109.05,109.907 115.968,103.086 115.968,103.086L125.674,94.233C127.298,85.039 126.527,81.739 126.527,81.739L115.11,74.531L100.671,77.188Z" style="fill:white;fill-rule:nonzero;"/>
        <path d="M82.698,113.219C76.195,107.702 71.757,106.992 65.181,107.391C59.054,107.83 52.896,107.225 46.976,105.603C37.064,102.778 29.775,97.042 27.473,89.89C23.639,77.963 28.595,68.768 29.102,64.35C29.609,59.931 26.102,57.362 23.526,57.954C20.83,58.572 19.982,61.417 20.504,63.537C20.744,64.539 21.309,65.436 22.113,66.091C22.724,66.602 23.003,67.404 21.73,67.624C20.618,67.808 18.828,67.675 17.224,65.724C13.712,61.417 15.688,54.184 22.537,52.325C27.711,50.93 32.884,53.995 34.788,58.317C36.433,62.117 35.621,67.818 35.021,70.689C34.022,75.46 32.563,86.851 40.965,92.981C42.977,94.447 49.346,97.491 65.569,97.854C73.785,98.033 80.086,98.84 85.104,102.814L82.698,113.219Z" style="fill:white;fill-rule:nonzero;"/>
        <path d="M62.336,107.576C56.831,107.75 42.522,105.563 35.17,100.082C22.941,90.954 27.136,75.104 27.136,75.104C26.65,77.816 29.552,101.012 52.801,101.758L62.336,107.576Z" style="fill:rgb(10,44,55);fill-rule:nonzero;"/>
        <path d="M29.32,64.784C31.793,58.654 25.45,54.532 21.42,57.066C18.43,58.946 17.762,63.834 22.775,67.282C22.775,67.282 18.068,61.939 22.258,58.695C24.053,57.311 25.879,57.944 26.867,58.343C29.909,59.528 29.32,64.784 29.32,64.784Z" style="fill:rgb(10,44,55);fill-rule:nonzero;"/>
        <path d="M92.828,107.007C82.435,108.259 72.751,118.245 57.841,110.496C39.336,100.867 38.229,84.444 42.606,72.062C47.644,57.785 61.861,49.029 70.8,43.027C77.008,38.834 82.182,34.057 81.773,28.725C81.452,24.342 76.936,24.005 75.731,24.168C74.362,24.311 73.097,24.952 72.182,25.966C70.242,28.382 71.245,31.616 74.768,32.04C75.984,32.183 75.725,33.174 74.908,33.756C73.992,34.41 71.726,34.67 69.636,33.245C66.874,31.381 64.929,26.666 68.545,22.237C71.473,18.661 75.932,17.987 79.58,18.83C83.516,19.734 87.976,23.233 88.059,30.068C88.162,38.782 80.299,45.137 74.608,49.745C68.917,54.352 55.353,65.059 52.249,75.388C49.145,85.716 51.788,95.682 63.113,101.771C70.981,106.001 76.429,99.728 87.981,98.42L92.828,107.007Z" style="fill:white;fill-rule:nonzero;"/>
        <path d="M83.417,104.966C83.417,104.966 71.348,115.392 54.317,103.852C44.425,97.176 40.866,84.916 41.316,76.365C41.316,76.365 36.733,91.966 48.342,103.75C59.951,115.535 73.722,115.351 84.891,109.558L83.417,104.966Z" style="fill:rgb(10,44,55);fill-rule:nonzero;"/>
        <path d="M81.7,29.145C82.419,25.058 79.563,21.963 75.078,22.233C71.421,22.453 68.456,26.953 71.162,30.273C71.162,30.273 69.61,25.64 75.301,24.333C80.37,23.158 81.7,29.145 81.7,29.145Z" style="fill:rgb(10,44,55);fill-rule:nonzero;"/>
        <path d="M87.696,33.65C84.742,38.585 78.047,44.781 73.014,48.219C67.628,51.897 51.286,64.601 51.461,78.306C51.461,78.306 51.461,72.937 58.559,64.575C65.45,56.402 76.469,48.571 79.129,45.946C87.68,37.517 87.696,33.65 87.696,33.65Z" style="fill:rgb(10,44,55);fill-rule:nonzero;"/>
        <path d="M121.944,91.739C122.737,87.362 120.11,83.236 116.077,82.524C112.044,81.812 108.131,84.783 107.339,89.159C106.546,93.536 109.173,97.661 113.206,98.374C117.239,99.086 121.151,96.115 121.944,91.739Z" style="fill:white;fill-rule:nonzero;"/>
        <path d="M117.882,91.74C118.396,88.978 117.393,86.482 115.643,86.165C113.893,85.847 112.058,87.829 111.545,90.591C111.031,93.353 112.033,95.849 113.783,96.167C115.533,96.484 117.368,94.502 117.882,91.74Z" style="fill:rgb(10,44,55);fill-rule:nonzero;"/>
        <path d="M116.705,89.319C116.864,88.438 116.453,87.629 115.786,87.512C115.12,87.394 114.45,88.012 114.291,88.892C114.131,89.773 114.542,90.582 115.209,90.7C115.875,90.817 116.545,90.199 116.705,89.319Z" style="fill:white;fill-rule:nonzero;"/>
        <path d="M109.062,103.452C105.875,110.19 99.926,117.285 87.23,118.353C69.786,119.824 59.268,107.682 57.375,99.156C55.695,91.228 56.999,82.967 61.043,75.919C64.902,69.126 70.091,64.308 76.785,58.337C81.959,53.74 84.928,50.757 86.754,47.017C89.548,41.281 89.564,38.625 93.702,33.123C98.203,27.152 105.534,25.66 110.448,27.898C111.193,28.24 111.612,28.996 110.216,29.144C106.925,29.502 100.728,30.722 97.505,37.113C95.115,41.848 94.711,46.047 93.221,49.883C91.276,54.92 88.131,58.639 82.595,63.777C76.718,69.238 71.121,76.635 68.829,82.422C67.086,86.823 66.569,91.605 67.334,96.27C68.244,101.491 73.945,107.089 81.467,107.953C93.113,109.291 97.132,101.312 98.72,99.294L109.062,103.452Z" style="fill:white;fill-rule:nonzero;"/>
        <path d="M91.51,114.369C79.094,116.305 69.611,111.335 66.196,107.902C55.007,96.665 57.422,86.499 58.167,84.635C58.167,84.635 52.409,99.305 63.791,110.222C72.586,118.64 85.576,119.896 94.272,117.005L91.51,114.369Z" style="fill:rgb(10,44,55);fill-rule:nonzero;"/>
        <path d="M110.758,28.92C107.959,28.164 102.729,28.245 97.457,33.134C94.452,35.923 92.853,42.65 90.38,49.807C88.311,55.732 83.81,59.339 80.742,62.291C72.843,69.887 68.362,78.535 67.457,85.921C67.457,85.921 70.204,74.964 85.466,60.682C93.422,53.245 93.888,46.829 95.704,40.627C97.519,34.426 100.484,31.867 104.767,30.569C109.051,29.272 110.758,28.92 110.758,28.92Z" style="fill:rgb(10,44,55);fill-rule:nonzero;"/>
        <path d="M108.452,99.728C106.828,104.325 104.437,107.181 101.623,108.355C97.485,110.082 92.192,107.983 88.871,101.562C84.67,93.435 85.11,81.195 94.401,69.784C98.804,64.379 100.232,61.325 101.577,57.115C103.077,52.437 102.839,47.563 100.904,44.764C100.263,43.829 99.207,43.436 99.404,45.638C99.666,48.694 99.09,51.764 97.738,54.526C95.229,59.486 93.423,60.768 88.679,65.534C81.38,72.864 72.875,84.552 77.815,101.102C82.208,115.783 96.548,120.978 105.4,117.908C113.33,115.154 115.007,107.109 116.057,102.583L108.452,99.728Z" style="fill:white;fill-rule:nonzero;"/>
        <path d="M115.88,102.16C115.88,102.16 109.258,116.754 96.702,115.156C81.022,113.158 76.759,97.277 76.475,94.34C76.475,94.34 77.69,112.806 92.812,117.413C114.959,124.166 115.88,102.16 115.88,102.16Z" style="fill:rgb(10,44,55);fill-rule:nonzero;"/>
        <path d="M86.827,82.871C89.595,75.52 94.22,69.253 97.898,64.957C101.576,60.661 102.14,55.251 102.497,51.818C101.685,56.671 99.559,60.502 96.377,64.19C93.196,67.878 88.265,73.676 86.827,82.871Z" style="fill:rgb(10,44,55);fill-rule:nonzero;"/>
        <path d="M128.023,111.369C124.676,111.987 121.054,102.737 122.275,94.201C123.175,88.01 121.479,81.236 121.479,81.236L126.559,81.456C126.559,81.456 127.076,86.723 125.653,94.911C123.822,105.423 123.274,109.306 128.023,111.369Z" style="fill:rgb(10,44,55);fill-rule:nonzero;"/>
        <path d="M141.303,101.977C140.693,104.781 137.335,114.124 131.707,116.039C126.078,117.955 122.131,116.657 119.647,114.859C119.647,114.859 125.633,121.5 133.284,118.241C140.936,114.982 141.303,101.977 141.303,101.977Z" style="fill:rgb(10,44,55);fill-rule:nonzero;"/>
        <path d="M126.636,81.236C132.508,64.823 129.021,47.568 129.021,47.568C132.399,45.637 135.87,40.033 135.87,40.033C133.625,29.776 126.098,21.572 126.098,21.572C126.098,21.572 114.489,28.949 109.253,37.975C109.253,37.975 110.805,42.889 112.28,44.917C112.28,44.917 102.135,61.641 100.795,76.705C100.795,76.689 114.359,80.091 126.636,81.236Z" style="fill:white;fill-rule:nonzero;"/>
        <path d="M126.325,81.254L121.529,80.569C126.951,68.596 125.911,52.725 125.477,48.235C125.436,47.864 125.478,47.489 125.599,47.136C125.721,46.783 125.919,46.461 126.18,46.192C128.374,43.637 130.95,40.445 131.322,38.585C131.695,36.726 126.046,21.928 126.046,21.928C126.046,21.928 134.178,31.143 136.242,39.965C136.242,39.965 131.881,45.865 129.232,47.806C129.232,47.801 132.093,68.192 126.325,81.254Z" style="fill:rgb(10,44,55);fill-rule:nonzero;"/>
    </g>
</svg>
